<svg xmlns="http://www.w3.org/2000/svg" viewBox="0 0 24 24" fill="#000000"><path d="M19.633 7.997c.475.474.864 1.031 1.144 1.652a4.903 4.903 0 0 1-.765 5.685l-1.414-1.415a2.902 2.902 0 0 0 .452-3.357 2.902 2.902 0 0 0-3.358-.452L14.278 8.696a4.903 4.903 0 0 1 5.355-.699zm-5.355.699l1.414 1.414a2.902 2.902 0 0 0-.452 3.358 2.902 2.902 0 0 0 3.358.452l1.414 1.414a4.903 4.903 0 0 1-5.355.699 4.903 4.903 0 0 1-1.144-1.652 4.903 4.903 0 0 1 .765-5.685zM12 2C6.486 2 2 6.486 2 12s4.486 10 10 10 10-4.486 10-10S17.514 2 12 2zm0 18c-4.411 0-8-3.589-8-8s3.589-8 8-8 8 3.589 8 8-3.589 8-8 8z"/></svg>
